nColumns=19
nRows=32
DataType=double
version=3
OpenSimVersion=4.1
endheader
time	ground_force_calcn_r_vx	ground_force_calcn_r_vy	ground_force_calcn_r_vz	ground_force_calcn_r_px	ground_force_calcn_r_py	ground_force_calcn_r_pz	ground_force_calcn_r_mx	ground_force_calcn_r_my	ground_force_calcn_r_mz	ground_force_calcn_l_vx	ground_force_calcn_l_vy	ground_force_calcn_l_vz	ground_force_calcn_l_px	ground_force_calcn_l_py	ground_force_calcn_l_pz	ground_force_calcn_l_mx	ground_force_calcn_l_my	ground_force_calcn_l_mz
1.5	-66.198	89.9264	6.19372	-0.0886497	0	-0.417993	-0.110076	0.149532	0.0102991	-172.236	216.723	14.6292	-0.107686	0	-0.75272	0.310793	-0.391069	-0.0263979
1.51	-389.762	570.174	1.5649	-0.111667	0	-0.426999	-1.60729	2.35126	0.00645328	-423.782	639.459	42.4562	-0.12459	0	-0.748327	0.93692	-1.41375	-0.0938643
1.52	-536.839	957.857	-42.5408	-0.12315	0	-0.427089	-3.10596	5.54182	-0.246126	-307.478	796.684	75.0761	-0.142542	0	-0.747002	1.42491	-3.692	-0.347918
1.53	-350.359	1004.34	-102.76	-0.135052	0	-0.422355	-3.22467	9.24384	-0.945792	-172.399	934.036	97.3777	-0.158325	0	-0.747641	1.06332	-5.76093	-0.600604
1.54	-353.248	1131.34	-146.709	-0.144669	0	-0.418374	-2.91149	9.3246	-1.20918	-241.115	1091.61	125.774	-0.163593	0	-0.748109	0.970322	-4.39299	-0.506154
1.55	-355.221	1430.5	-162.652	-0.180642	0	-0.421233	-0.97337	3.91982	-0.445694	-303.422	1125.64	130.5	-0.16824	0	-0.747031	0.0295746	-0.109716	-0.0127199
1.56	-125.548	2021.98	-114.26	-0.23232	0	-0.432612	0.287274	-4.62661	0.261445	-264.98	1127.91	101.817	-0.180682	0	-0.743354	-1.14298	4.86519	0.439183
1.57	28.968	1984.94	-44.8008	-0.246726	0	-0.439249	-0.145539	-9.97258	0.225085	-205.777	1218.2	82.8957	-0.196749	0	-0.738484	-1.28825	7.62651	0.518964
1.58	-246.287	1422.84	-76.5687	-0.218758	0	-0.435983	1.34652	-7.77907	0.418624	-170.97	1246.17	93.837	-0.203742	0	-0.736245	-0.811368	5.9139	0.445319
1.59	-419.415	1027.65	-102.975	-0.178758	0	-0.431679	0.826879	-2.02601	0.203017	-191.674	1111.77	113.582	-0.197006	0	-0.736943	-0.426946	2.47642	0.252999
1.6	-346.025	949.137	-97.2025	-0.176111	0	-0.433673	-0.0924508	0.25359	-0.0259705	-226.158	940.303	112.921	-0.184885	0	-0.737214	-0.193221	0.803359	0.0964754
1.61	-248.787	1007.26	-86.485	-0.19202	0	-0.437518	0.0107476	-0.0435136	0.00373614	-222.865	840.729	90.6501	-0.181297	0	-0.734813	-0.441331	1.66486	0.179511
1.62	-216.622	1021.13	-69.5036	-0.19982	0	-0.44106	0.226721	-1.06874	0.072744	-179.543	826.575	67.999	-0.191163	0	-0.730276	-0.662184	3.04855	0.250792
1.63	-186.916	983.712	-54.6013	-0.204233	0	-0.444053	0.258223	-1.35899	0.0754311	-115.35	846.855	53.6949	-0.206441	0	-0.725374	-0.483836	3.55215	0.225225
1.64	-141.576	946.821	-51.3815	-0.210117	0	-0.445927	0.138819	-0.928386	0.050381	-71.0433	829.123	48.6052	-0.215841	0	-0.722336	-0.276933	3.232	0.189467
1.65	-112.061	893.939	-48.1089	-0.212837	0	-0.44687	0.0642007	-0.512144	0.0275619	-66.8544	760.448	51.0827	-0.216213	0	-0.721548	-0.227178	2.58408	0.173584
1.66	-111.758	822.88	-40.2811	-0.209966	0	-0.447269	0.0407313	-0.299908	0.0146809	-78.6216	687.601	51.1862	-0.21244	0	-0.721578	-0.242689	2.12248	0.158001
1.67	-114.945	765	-34.6603	-0.20543	0	-0.44715	0.0421881	-0.280777	0.0127213	-80.3921	637.008	46.2599	-0.209778	0	-0.7216	-0.242104	1.91837	0.139313
1.68	-104.91	737.301	-34.8456	-0.203539	0	-0.446592	0.0298743	-0.209955	0.00992269	-73.1767	595.355	41.2029	-0.208003	0	-0.721886	-0.215767	1.75545	0.12149
1.69	-88.1243	721.139	-40.2244	-0.203667	0	-0.44561	-0.00937754	0.0767383	-0.00428039	-67.0492	555.852	38.3073	-0.20576	0	-0.722652	-0.190532	1.57955	0.108857
1.7	-75.8027	693.996	-46.3783	-0.203816	0	-0.444298	-0.0395019	0.361651	-0.0241684	-64.6853	520.942	37.3332	-0.203888	0	-0.723749	-0.180583	1.45432	0.104224
1.71	-69.2526	656.825	-49.0569	-0.20468	0	-0.443178	-0.0351069	0.332971	-0.0248689	-61.0045	487.754	36.1187	-0.204401	0	-0.724309	-0.1785	1.42718	0.105684
1.72	-61.0661	624.514	-47.5563	-0.208064	0	-0.442486	0.00444417	-0.0454499	0.00346098	-53.5914	457.655	34.2477	-0.207867	0	-0.72433	-0.177831	1.51862	0.113643
1.73	-48.2254	600.559	-44.7423	-0.213671	0	-0.442051	0.0316258	-0.393841	0.0293416	-44.0718	429.129	32.3803	-0.213114	0	-0.723902	-0.177972	1.73292	0.130759
1.74	-34.6487	580.866	-42.8514	-0.219556	0	-0.441594	0.0234628	-0.393341	0.0290174	-34.0611	398.582	30.0966	-0.218823	0	-0.72327	-0.171595	2.008	0.151623
1.75	-24.2267	557.421	-42.3003	-0.223561	0	-0.440528	0.00563195	-0.129583	0.0098335	-26.0127	366.721	28.1225	-0.223666	0	-0.722771	-0.157854	2.22539	0.170657
1.76	-18.5236	525.962	-41.7409	-0.224945	0	-0.439031	-0.0054571	0.15495	-0.012297	-21.8212	334.899	27.0168	-0.226343	0	-0.722806	-0.150537	2.31035	0.18638
1.77	-15.8914	490.877	-39.6191	-0.22474	0	-0.437766	-0.0103961	0.321133	-0.0259188	-20.5145	302.93	25.7815	-0.226737	0	-0.72338	-0.158567	2.3415	0.199279
1.78	-13.2983	458.655	-36.5879	-0.224319	0	-0.436593	-0.0113363	0.390988	-0.03119	-20.2654	274.87	23.8725	-0.225878	0	-0.723731	-0.17373	2.35638	0.204652
1.79	-9.39762	431.344	-33.2927	-0.223883	0	-0.435826	-0.00886361	0.406833	-0.0314009	-19.3823	254.82	21.4798	-0.224547	0	-0.723858	-0.178505	2.34682	0.197823
1.8	-5.08096	407.085	-30.0746	-0.222834	0	-0.43528	-0.0053684	0.430114	-0.031776	-17.3821	239.475	18.5595	-0.222959	0	-0.724126	-0.171285	2.35982	0.182888
1.81	-0.878443	383.068	-27.3679	-0.220541	0	-0.434676	-0.00123441	0.538298	-0.0384581	-15.4739	222.493	15.1597	-0.22227	0	-0.724144	-0.164141	2.36011	0.160808
